<svg width="83" height="26" viewBox="0 0 83 26" fill="none" xmlns="http://www.w3.org/2000/svg">
<path d="M1.02097 19.84C0.84097 19.84 0.75097 19.75 0.75097 19.57C0.75097 19.498 0.76897 19.354 0.80497 19.138C0.85897 18.922 0.92197 18.751 0.99397 18.625C1.65997 18.589 2.11897 18.409 2.37097 18.085C2.64097 17.743 2.77597 17.203 2.77597 16.465V4.18C2.77597 3.568 2.73997 3.136 2.66797 2.884C2.59597 2.632 2.43397 2.479 2.18197 2.425C1.94797 2.353 1.56997 2.317 1.04797 2.317C1.04797 2.083 1.06597 1.867 1.10197 1.669C1.13797 1.453 1.16497 1.3 1.18297 1.21C1.23697 1.03 1.33597 0.939999 1.47997 0.939999H8.28397C10.48 0.939999 12.154 1.399 13.306 2.317C14.476 3.217 15.061 4.459 15.061 6.043C15.061 7.357 14.692 8.491 13.954 9.445C13.216 10.399 12.19 11.137 10.876 11.659C9.56197 12.181 8.02297 12.442 6.25897 12.442C5.97097 12.442 5.68297 12.433 5.39497 12.415V16.465C5.39497 17.257 5.43097 17.77 5.50297 18.004C5.57497 18.238 5.74597 18.373 6.01597 18.409C6.15997 18.427 6.34897 18.445 6.58297 18.463C6.83497 18.463 7.05097 18.463 7.23097 18.463C7.23097 18.949 7.19497 19.318 7.12297 19.57C7.06897 19.75 6.96997 19.84 6.82597 19.84H1.02097ZM5.39497 10.687C6.18697 10.849 6.92497 10.93 7.60897 10.93C8.95897 10.93 10.084 10.561 10.984 9.823C11.902 9.067 12.361 7.924 12.361 6.394C12.361 4.936 11.956 3.892 11.146 3.262C10.354 2.632 9.25597 2.317 7.85197 2.317C7.54597 2.317 7.22197 2.335 6.87997 2.371C6.55597 2.389 6.29497 2.416 6.09697 2.452C5.80897 2.524 5.61997 2.704 5.52997 2.992C5.43997 3.28 5.39497 3.676 5.39497 4.18V10.687ZM16.8181 19.84C16.6381 19.84 16.5481 19.714 16.5481 19.462C16.5481 19.156 16.6021 18.877 16.7101 18.625C17.3581 18.589 17.8081 18.445 18.0601 18.193C18.3301 17.941 18.4831 17.59 18.5191 17.14C18.5551 16.834 18.5731 16.366 18.5731 15.736C18.5911 15.106 18.6001 14.44 18.6001 13.738C18.6001 13.036 18.5911 12.352 18.5731 11.686C18.5731 11.002 18.5641 10.462 18.5461 10.066C18.5101 9.418 18.2401 9.067 17.7361 9.013L16.8181 8.932C16.6381 8.932 16.5481 8.815 16.5481 8.581C16.5481 8.347 16.6381 8.068 16.8181 7.744C17.0881 7.672 17.4661 7.6 17.9521 7.528C18.4561 7.456 18.9421 7.393 19.4101 7.339C19.8961 7.285 20.2471 7.258 20.4631 7.258C21.0571 7.258 21.3271 7.618 21.2731 8.338C21.2371 8.86 21.2101 9.481 21.1921 10.201C21.1741 10.903 21.1561 11.65 21.1381 12.442C21.1381 13.216 21.1381 13.972 21.1381 14.71C21.1381 15.25 21.1381 15.772 21.1381 16.276C21.1561 16.78 21.1741 17.257 21.1921 17.707C21.2101 17.941 21.2641 18.112 21.3541 18.22C21.4441 18.31 21.5431 18.364 21.6511 18.382C21.8131 18.4 22.0201 18.418 22.2721 18.436C22.5421 18.454 22.7941 18.463 23.0281 18.463C23.0281 18.949 22.9921 19.318 22.9201 19.57C22.8661 19.75 22.7401 19.84 22.5421 19.84H16.8181ZM19.6801 4.855C19.1221 4.855 18.6631 4.684 18.3031 4.342C17.9431 3.982 17.7631 3.55 17.7631 3.046C17.7631 2.506 17.9431 2.065 18.3031 1.723C18.6631 1.381 19.1221 1.21 19.6801 1.21C20.2381 1.21 20.6881 1.381 21.0301 1.723C21.3721 2.065 21.5431 2.506 21.5431 3.046C21.5431 3.55 21.3721 3.982 21.0301 4.342C20.6881 4.684 20.2381 4.855 19.6801 4.855ZM24.1123 19.84C23.9323 19.84 23.8423 19.75 23.8423 19.57C23.8423 19.498 23.8513 19.354 23.8693 19.138C23.8873 18.904 23.9323 18.733 24.0043 18.625C24.7243 18.589 25.2193 18.427 25.4893 18.139C25.7773 17.833 25.9303 17.455 25.9483 17.005C26.0023 15.781 26.0473 14.332 26.0833 12.658C26.1193 10.966 26.1373 9.292 26.1373 7.636C26.1373 6.754 26.1283 5.908 26.1103 5.098C26.1103 4.27 26.0923 3.514 26.0563 2.83C26.0383 2.524 25.9663 2.281 25.8403 2.101C25.7323 1.921 25.5253 1.822 25.2193 1.804L24.3553 1.75C24.1753 1.75 24.0853 1.633 24.0853 1.399C24.0853 1.147 24.1753 0.859 24.3553 0.535C24.6253 0.462999 24.9943 0.399999 25.4623 0.345999C25.9483 0.291998 26.4253 0.246998 26.8933 0.210999C27.3613 0.156999 27.7033 0.129998 27.9193 0.129998C28.2793 0.129998 28.5223 0.219999 28.6483 0.4C28.7923 0.58 28.8463 0.894999 28.8103 1.345C28.7743 1.723 28.7383 2.362 28.7023 3.262C28.6843 4.144 28.6573 5.179 28.6213 6.367C28.6033 7.555 28.5853 8.797 28.5673 10.093C28.5673 11.371 28.5673 12.586 28.5673 13.738C28.5673 14.422 28.5673 15.07 28.5673 15.682C28.5673 16.276 28.5763 16.807 28.5943 17.275C28.6123 17.617 28.6753 17.887 28.7833 18.085C28.8913 18.265 29.0713 18.373 29.3233 18.409C29.4313 18.427 29.6203 18.445 29.8903 18.463C30.1783 18.463 30.4123 18.463 30.5923 18.463C30.5923 18.949 30.5563 19.318 30.4843 19.57C30.4303 19.75 30.3313 19.84 30.1873 19.84H24.1123ZM31.6797 19.84C31.4997 19.84 31.4097 19.75 31.4097 19.57C31.4097 19.498 31.4187 19.354 31.4367 19.138C31.4547 18.904 31.4997 18.733 31.5717 18.625C32.2917 18.589 32.7867 18.427 33.0567 18.139C33.3447 17.833 33.4977 17.455 33.5157 17.005C33.5697 15.781 33.6147 14.332 33.6507 12.658C33.6867 10.966 33.7047 9.292 33.7047 7.636C33.7047 6.754 33.6957 5.908 33.6777 5.098C33.6777 4.27 33.6597 3.514 33.6237 2.83C33.6057 2.524 33.5337 2.281 33.4077 2.101C33.2997 1.921 33.0927 1.822 32.7867 1.804L31.9227 1.75C31.7427 1.75 31.6527 1.633 31.6527 1.399C31.6527 1.147 31.7427 0.859 31.9227 0.535C32.1927 0.462999 32.5617 0.399999 33.0297 0.345999C33.5157 0.291998 33.9927 0.246998 34.4607 0.210999C34.9287 0.156999 35.2707 0.129998 35.4867 0.129998C35.8467 0.129998 36.0897 0.219999 36.2157 0.4C36.3597 0.58 36.4137 0.894999 36.3777 1.345C36.3417 1.723 36.3057 2.362 36.2697 3.262C36.2517 4.144 36.2247 5.179 36.1887 6.367C36.1707 7.555 36.1527 8.797 36.1347 10.093C36.1347 11.371 36.1347 12.586 36.1347 13.738C36.1347 14.422 36.1347 15.07 36.1347 15.682C36.1347 16.276 36.1437 16.807 36.1617 17.275C36.1797 17.617 36.2427 17.887 36.3507 18.085C36.4587 18.265 36.6387 18.373 36.8907 18.409C36.9987 18.427 37.1877 18.445 37.4577 18.463C37.7457 18.463 37.9797 18.463 38.1597 18.463C38.1597 18.949 38.1237 19.318 38.0517 19.57C37.9977 19.75 37.8987 19.84 37.7547 19.84H31.6797ZM39.5171 19.84C39.3371 19.84 39.2471 19.75 39.2471 19.57C39.2471 19.498 39.2651 19.354 39.3011 19.138C39.3551 18.922 39.4181 18.751 39.4901 18.625C40.1561 18.589 40.6151 18.409 40.8671 18.085C41.1371 17.743 41.2721 17.203 41.2721 16.465V4.18C41.2721 3.568 41.2361 3.136 41.1641 2.884C41.0921 2.632 40.9301 2.479 40.6781 2.425C40.4441 2.353 40.0661 2.317 39.5441 2.317C39.5441 2.083 39.5621 1.867 39.5981 1.669C39.6341 1.453 39.6611 1.3 39.6791 1.21C39.7331 1.03 39.8321 0.939999 39.9761 0.939999H46.7801C48.9761 0.939999 50.6501 1.399 51.8021 2.317C52.9721 3.217 53.5571 4.459 53.5571 6.043C53.5571 7.357 53.1881 8.491 52.4501 9.445C51.7121 10.399 50.6861 11.137 49.3721 11.659C48.0581 12.181 46.5191 12.442 44.7551 12.442C44.4671 12.442 44.1791 12.433 43.8911 12.415V16.465C43.8911 17.257 43.9271 17.77 43.9991 18.004C44.0711 18.238 44.2421 18.373 44.5121 18.409C44.6561 18.427 44.8451 18.445 45.0791 18.463C45.3311 18.463 45.5471 18.463 45.7271 18.463C45.7271 18.949 45.6911 19.318 45.6191 19.57C45.5651 19.75 45.4661 19.84 45.3221 19.84H39.5171ZM43.8911 10.687C44.6831 10.849 45.4211 10.93 46.1051 10.93C47.4551 10.93 48.5801 10.561 49.4801 9.823C50.3981 9.067 50.8571 7.924 50.8571 6.394C50.8571 4.936 50.4521 3.892 49.6421 3.262C48.8501 2.632 47.7521 2.317 46.3481 2.317C46.0421 2.317 45.7181 2.335 45.3761 2.371C45.0521 2.389 44.7911 2.416 44.5931 2.452C44.3051 2.524 44.1161 2.704 44.0261 2.992C43.9361 3.28 43.8911 3.676 43.8911 4.18V10.687ZM60.7815 20.245C59.5575 20.245 58.4775 19.984 57.5415 19.462C56.6235 18.94 55.9035 18.202 55.3815 17.248C54.8775 16.276 54.6255 15.151 54.6255 13.873C54.6255 12.487 54.9045 11.272 55.4625 10.228C56.0385 9.184 56.8395 8.365 57.8655 7.771C58.8915 7.177 60.0705 6.88 61.4025 6.88C62.6445 6.88 63.7245 7.141 64.6425 7.663C65.5785 8.185 66.2985 8.923 66.8025 9.877C67.3245 10.813 67.5855 11.92 67.5855 13.198C67.6035 14.566 67.3245 15.781 66.7485 16.843C66.1725 17.905 65.3715 18.742 64.3455 19.354C63.3195 19.948 62.1315 20.245 60.7815 20.245ZM61.2945 18.598C62.4285 18.598 63.3105 18.175 63.9405 17.329C64.5885 16.483 64.9125 15.322 64.9125 13.846C64.9125 12.154 64.5255 10.849 63.7515 9.931C62.9955 8.995 62.0415 8.527 60.8895 8.527C59.7915 8.527 58.9185 8.959 58.2705 9.823C57.6225 10.669 57.2985 11.848 57.2985 13.36C57.2985 14.998 57.6675 16.285 58.4055 17.221C59.1435 18.139 60.1065 18.598 61.2945 18.598ZM69.2002 25.24C69.0202 25.24 68.9302 25.15 68.9302 24.97C68.9302 24.898 68.9392 24.745 68.9572 24.511C68.9752 24.295 69.0202 24.133 69.0922 24.025C69.6682 23.989 70.0732 23.845 70.3072 23.593C70.5592 23.341 70.7032 22.99 70.7392 22.54C70.7752 22.18 70.8022 21.631 70.8202 20.893C70.8562 20.137 70.8832 19.282 70.9012 18.328C70.9192 17.374 70.9282 16.411 70.9282 15.439C70.9462 14.449 70.9552 13.531 70.9552 12.685C70.9552 12.127 70.9552 11.623 70.9552 11.173C70.9552 10.723 70.9462 10.363 70.9282 10.093C70.8922 9.445 70.6222 9.094 70.1182 9.04L69.2002 8.959C69.0202 8.959 68.9302 8.842 68.9302 8.608C68.9302 8.356 69.0202 8.068 69.2002 7.744C69.9382 7.582 70.5772 7.465 71.1172 7.393C71.6572 7.321 72.1792 7.285 72.6832 7.285C73.0432 7.285 73.2862 7.366 73.4122 7.528C73.5562 7.69 73.6102 7.969 73.5742 8.365C73.5742 8.473 73.5652 8.59 73.5472 8.716C74.0692 8.194 74.6722 7.762 75.3562 7.42C76.0582 7.06 76.7872 6.88 77.5432 6.88C78.7672 6.88 79.7752 7.186 80.5672 7.798C81.3592 8.392 81.9532 9.175 82.3492 10.147C82.7632 11.101 82.9702 12.109 82.9702 13.171C82.9702 14.035 82.8262 14.89 82.5382 15.736C82.2682 16.564 81.8452 17.32 81.2692 18.004C80.7112 18.688 80.0092 19.237 79.1632 19.651C78.3172 20.047 77.3362 20.245 76.2202 20.245C75.6622 20.245 75.1402 20.182 74.6542 20.056C74.1862 19.93 73.7632 19.75 73.3852 19.516C73.3852 20.11 73.3852 20.677 73.3852 21.217C73.4032 21.757 73.4122 22.288 73.4122 22.81C73.4122 23.152 73.4572 23.395 73.5472 23.539C73.6552 23.683 73.8352 23.773 74.0872 23.809C74.1952 23.827 74.4202 23.836 74.7622 23.836C75.1042 23.854 75.3652 23.863 75.5452 23.863C75.5452 24.349 75.5092 24.718 75.4372 24.97C75.3832 25.15 75.2842 25.24 75.1402 25.24H69.2002ZM73.3852 16.249C73.5832 16.933 73.9702 17.5 74.5462 17.95C75.1402 18.382 75.8242 18.598 76.5982 18.598C77.6962 18.598 78.5782 18.157 79.2442 17.275C79.9282 16.375 80.2702 15.187 80.2702 13.711C80.2702 12.289 79.9822 11.119 79.4062 10.201C78.8482 9.283 77.9572 8.824 76.7332 8.824C76.0852 8.824 75.4732 8.995 74.8972 9.337C74.3392 9.679 73.8712 10.138 73.4932 10.714C73.4752 11.47 73.4572 12.325 73.4392 13.279C73.4212 14.215 73.4032 15.205 73.3852 16.249Z" fill="black"/>
</svg>
