<svg width="35" height="32" viewBox="0 0 35 32" fill="none" xmlns="http://www.w3.org/2000/svg">
<path fill-rule="evenodd" clip-rule="evenodd" d="M4.24707 17.3786C4.24707 17.1024 4.02322 16.8786 3.74707 16.8786H1.51351C1.06577 16.8786 0.843738 16.3353 1.16332 16.0217L16.3265 1.14324C16.5179 0.955372 16.8235 0.952063 17.019 1.13575L32.854 16.0142C33.1841 16.3244 32.9646 16.8786 32.5116 16.8786H30.4578C30.1817 16.8786 29.9578 17.1024 29.9578 17.3786V30.5C29.9578 30.7761 29.7339 31 29.4578 31H4.74707C4.47093 31 4.24707 30.7761 4.24707 30.5V17.3786Z" fill="#252525"/>
<path d="M32.854 16.0142L33.5387 15.2854L32.854 16.0142ZM16.3265 1.14324L15.6261 0.429468L16.3265 1.14324ZM1.16332 16.0217L0.462951 15.3079L1.16332 16.0217ZM1.51351 17.8786H3.74707V15.8786H1.51351V17.8786ZM15.6261 0.429468L0.462951 15.3079L1.8637 16.7354L17.0268 1.85702L15.6261 0.429468ZM33.5387 15.2854L17.7038 0.40697L16.3343 1.86452L32.1692 16.7429L33.5387 15.2854ZM30.4578 17.8786H32.5116V15.8786H30.4578V17.8786ZM28.9578 17.3786V30.5H30.9578V17.3786H28.9578ZM29.4578 30H4.74707V32H29.4578V30ZM5.24707 30.5V17.3786H3.24707V30.5H5.24707ZM4.74707 30C5.02322 30 5.24707 30.2239 5.24707 30.5H3.24707C3.24707 31.3284 3.91864 32 4.74707 32V30ZM28.9578 30.5C28.9578 30.2239 29.1817 30 29.4578 30V32C30.2862 32 30.9578 31.3284 30.9578 30.5H28.9578ZM30.4578 15.8786C29.6294 15.8786 28.9578 16.5501 28.9578 17.3786H30.9578C30.9578 17.6547 30.7339 17.8786 30.4578 17.8786V15.8786ZM32.1692 16.7429C31.8391 16.4328 32.0586 15.8786 32.5116 15.8786V17.8786C33.8706 17.8786 34.5291 16.216 33.5387 15.2854L32.1692 16.7429ZM17.0268 1.85702C16.8354 2.04489 16.5298 2.0482 16.3343 1.86452L17.7038 0.40697C17.1173 -0.144076 16.2005 -0.134149 15.6261 0.429468L17.0268 1.85702ZM3.74707 17.8786C3.47093 17.8786 3.24707 17.6547 3.24707 17.3786H5.24707C5.24707 16.5501 4.5755 15.8786 3.74707 15.8786V17.8786ZM1.51351 15.8786C1.96125 15.8786 2.18329 16.4219 1.8637 16.7354L0.462951 15.3079C-0.495812 16.2487 0.170293 17.8786 1.51351 17.8786V15.8786Z" fill="#252525"/>
</svg>
